<svg width="20" height="20" viewBox="0 0 20 20" fill="none" xmlns="http://www.w3.org/2000/svg">
<path d="M6.35453 16.7773C6.16946 17.2353 6.07693 17.4643 5.88959 17.6039C5.74005 17.7153 5.50376 17.7821 5.31803 17.7656C5.08535 17.745 4.91233 17.6174 4.56628 17.3623C2.30213 15.6932 0.833313 13.0076 0.833313 9.97897C0.833313 9.9552 0.833403 9.93145 0.833584 9.90772C0.836861 9.4773 0.838499 9.26209 0.961368 9.0635C1.0595 8.9049 1.25441 8.75598 1.43322 8.70298C1.65712 8.63662 1.89597 8.69973 2.37367 8.82594L8.14215 10.35C8.39478 10.4168 8.5211 10.4502 8.59911 10.5254C8.66761 10.5914 8.71143 10.679 8.7233 10.7734C8.7368 10.8809 8.68786 11.0021 8.58998 11.2443L6.35453 16.7773Z" fill="#F2F2F2"/>
<path d="M10.9135 2.31751C10.9187 1.82416 10.9213 1.57749 11.0445 1.37934C11.1429 1.22122 11.3383 1.07266 11.5169 1.02011C11.7408 0.954251 11.9482 1.00942 12.3629 1.11975C16.2804 2.16193 19.1666 5.73339 19.1666 9.97897C19.1666 15.0416 15.0626 19.1456 9.99998 19.1456C9.58594 19.1456 9.17831 19.1182 8.77882 19.065C8.35334 19.0084 8.1406 18.9801 7.95878 18.8333C7.81372 18.7162 7.69005 18.5038 7.65985 18.3199C7.62198 18.0893 7.71446 17.8604 7.8994 17.4027L10.7726 10.2911C10.8136 10.1897 10.8338 10.0825 10.8333 9.97551L10.9135 2.31751Z" fill="#F2F2F2"/>
<path d="M7.8229 1.0724C8.23994 0.970811 8.44846 0.920018 8.67089 0.990565C8.84842 1.04687 9.04055 1.19945 9.1356 1.35961C9.25469 1.56029 9.2521 1.80702 9.24694 2.30048L9.18687 8.03656C9.1838 8.32928 9.18227 8.47565 9.12051 8.57479C9.06639 8.66167 8.98217 8.7256 8.88393 8.75436C8.77183 8.78718 8.63045 8.7493 8.34769 8.67353L2.80652 7.18878C2.32971 7.06102 2.0913 6.99714 1.92996 6.8282C1.80124 6.69341 1.70601 6.4669 1.69976 6.28062C1.69192 6.04715 1.79728 5.86015 2.00799 5.48613C3.23595 3.30648 5.3298 1.67968 7.8229 1.0724Z" fill="#F2F2F2"/>
</svg>
