<svg width="20" height="18" viewBox="0 0 20 18" fill="none" xmlns="http://www.w3.org/2000/svg">
<path fill-rule="evenodd" clip-rule="evenodd" d="M2.9734 3.97897C2.98225 3.97897 2.99111 3.97897 2.99998 3.97897H3.66665C3.67552 3.97897 3.68438 3.97897 3.69323 3.97897C3.90355 3.97894 4.10838 3.97892 4.28184 3.99309C4.47234 4.00865 4.69711 4.04538 4.9233 4.16062C5.2369 4.32041 5.49187 4.57538 5.65166 4.88898C5.76691 5.11517 5.80363 5.33995 5.8192 5.53044C5.83337 5.70391 5.83334 5.90873 5.83332 6.11905C5.83332 6.1279 5.83332 6.13677 5.83332 6.14563L5.83332 15.1722C5.83334 15.3825 5.83337 15.5874 5.8192 15.7608C5.80363 15.9513 5.76691 16.1761 5.65166 16.4023C5.49187 16.7159 5.2369 16.9709 4.9233 17.1306C4.69711 17.2459 4.47234 17.2826 4.28184 17.2982C4.10837 17.3124 3.90354 17.3123 3.69322 17.3123H2.97342C2.76309 17.3123 2.55826 17.3124 2.38479 17.2982C2.1943 17.2826 1.96952 17.2459 1.74333 17.1306C1.42973 16.9709 1.17476 16.7159 1.01497 16.4023C0.899725 16.1761 0.863002 15.9513 0.847438 15.7608C0.833266 15.5874 0.83329 15.3825 0.833315 15.1722L0.833317 6.14564C0.833317 6.13677 0.833316 6.12791 0.833315 6.11905C0.83329 5.90873 0.833266 5.70391 0.847438 5.53044C0.863002 5.33995 0.899725 5.11517 1.01497 4.88898C1.17476 4.57538 1.42973 4.32041 1.74333 4.16062C1.96952 4.04538 2.1943 4.00865 2.38479 3.99309C2.55826 3.97892 2.76308 3.97894 2.9734 3.97897Z" fill="#F2F2F2"/>
<path fill-rule="evenodd" clip-rule="evenodd" d="M9.64007 0.645632C9.64892 0.645633 9.65778 0.645634 9.66665 0.645634L10.3333 0.645634C10.3422 0.645634 10.351 0.645633 10.3599 0.645632C10.5702 0.645607 10.775 0.645583 10.9485 0.659755C11.139 0.675319 11.3638 0.712042 11.59 0.82729C11.9036 0.987079 12.1585 1.24205 12.3183 1.55565C12.4336 1.78184 12.4703 2.00662 12.4859 2.19711C12.5 2.37057 12.5 2.5754 12.5 2.78572C12.5 2.79457 12.5 2.80343 12.5 2.8123L12.5 15.1722C12.5 15.3825 12.5 15.5874 12.4859 15.7608C12.4703 15.9513 12.4336 16.1761 12.3183 16.4023C12.1585 16.7159 11.9036 16.9709 11.59 17.1306C11.3638 17.2459 11.139 17.2826 10.9485 17.2982C10.775 17.3124 10.5702 17.3123 10.3599 17.3123H9.64005C9.42974 17.3123 9.22492 17.3124 9.05146 17.2982C8.86096 17.2826 8.63619 17.2459 8.41 17.1306C8.0964 16.9709 7.84143 16.7159 7.68164 16.4023C7.56639 16.1761 7.52967 15.9513 7.5141 15.7608C7.49993 15.5874 7.49996 15.3825 7.49998 15.1722L7.49998 2.8123C7.49998 2.80343 7.49998 2.79457 7.49998 2.78572C7.49996 2.5754 7.49993 2.37057 7.5141 2.19711C7.52967 2.00662 7.56639 1.78184 7.68164 1.55565C7.84143 1.24205 8.0964 0.987079 8.41 0.82729C8.63619 0.712042 8.86096 0.675319 9.05146 0.659755C9.22492 0.645583 9.42975 0.645607 9.64007 0.645632Z" fill="#F2F2F2"/>
<path fill-rule="evenodd" clip-rule="evenodd" d="M16.3067 7.3123C16.3156 7.3123 16.3244 7.3123 16.3333 7.3123H17C17.0089 7.3123 17.0177 7.3123 17.0266 7.3123C17.2369 7.31227 17.4417 7.31225 17.6152 7.32642C17.8057 7.34199 18.0304 7.37871 18.2566 7.49396C18.5702 7.65375 18.8252 7.90871 18.985 8.22232C19.1002 8.4485 19.137 8.67328 19.1525 8.86378C19.1667 9.03724 19.1667 9.24207 19.1667 9.45239C19.1666 9.46124 19.1666 9.4701 19.1666 9.47897L19.1667 15.1722C19.1667 15.3825 19.1667 15.5874 19.1525 15.7608C19.137 15.9513 19.1002 16.1761 18.985 16.4023C18.8252 16.7159 18.5702 16.9709 18.2566 17.1306C18.0304 17.2459 17.8057 17.2826 17.6152 17.2982C17.4417 17.3124 17.2369 17.3123 17.0266 17.3123H16.3067C16.0964 17.3123 15.8916 17.3124 15.7181 17.2982C15.5276 17.2826 15.3029 17.2459 15.0767 17.1306C14.7631 16.9709 14.5081 16.7159 14.3483 16.4023C14.2331 16.1761 14.1963 15.9513 14.1808 15.7608C14.1666 15.5874 14.1666 15.3825 14.1666 15.1722L14.1666 9.47897C14.1666 9.4701 14.1666 9.46124 14.1666 9.45239C14.1666 9.24207 14.1666 9.03724 14.1808 8.86378C14.1963 8.67328 14.2331 8.4485 14.3483 8.22232C14.5081 7.90871 14.7631 7.65375 15.0767 7.49396C15.3029 7.37871 15.5276 7.34199 15.7181 7.32642C15.8916 7.31225 16.0964 7.31227 16.3067 7.3123Z" fill="#F2F2F2"/>
</svg>
