<svg width="18" height="18" viewBox="0 0 18 18" fill="none" xmlns="http://www.w3.org/2000/svg">
<path fill-rule="evenodd" clip-rule="evenodd" d="M9.43559 0.092593C9.15034 0.0153596 8.84969 0.0153596 8.56444 0.092593C8.2333 0.182251 7.95451 0.401129 7.732 0.575821L7.66981 0.624502L1.95313 5.07073C1.63928 5.3143 1.36276 5.52889 1.15671 5.80747C0.975888 6.05196 0.841183 6.32738 0.759215 6.62021C0.665815 6.95389 0.666193 7.3039 0.666622 7.70119L0.66668 13.8444C0.666665 14.2837 0.666653 14.6627 0.692156 14.9748C0.719073 15.3043 0.778503 15.6319 0.939165 15.9473C1.17885 16.4177 1.5613 16.8001 2.0317 17.0398C2.34702 17.2005 2.6747 17.2599 3.00416 17.2868C3.3163 17.3123 3.69526 17.3123 4.13454 17.3123H13.8655C14.3048 17.3123 14.6837 17.3123 14.9959 17.2868C15.3253 17.2599 15.653 17.2005 15.9683 17.0398C16.4387 16.8001 16.8212 16.4177 17.0609 15.9473C17.2215 15.6319 17.281 15.3043 17.3079 14.9748C17.3334 14.6627 17.3334 14.2837 17.3333 13.8444L17.3334 7.70119C17.3338 7.30391 17.3342 6.9539 17.2408 6.62021C17.1588 6.32738 17.0241 6.05196 16.8433 5.80747C16.6373 5.52888 16.3607 5.3143 16.0469 5.07073L10.3302 0.624502L10.268 0.575824C10.0455 0.401132 9.76673 0.182251 9.43559 0.092593ZM5.66669 12.3123C5.20645 12.3123 4.83336 12.6854 4.83336 13.1456C4.83336 13.6059 5.20645 13.979 5.66669 13.979H12.3334C12.7936 13.979 13.1667 13.6059 13.1667 13.1456C13.1667 12.6854 12.7936 12.3123 12.3334 12.3123H5.66669Z" fill="#F7F7F7"/>
</svg>
