<svg width="14" height="14" viewBox="0 0 14 14" fill="none" xmlns="http://www.w3.org/2000/svg">
<path d="M3.97951 0.358004C3.8224 0.333121 3.64773 0.333232 3.44471 0.333362L3.34496 0.333369C3.02698 0.333265 2.79132 0.333188 2.58281 0.366212C1.44177 0.546936 0.546862 1.44184 0.366138 2.58289C0.333113 2.79139 0.33319 3.02705 0.333294 3.34503V10.6551C0.33319 10.973 0.333113 11.2087 0.366137 11.4172C0.546861 12.5583 1.44177 13.4532 2.58281 13.6339C2.7913 13.6669 3.02695 13.6668 3.3449 13.6667L3.44471 13.6667C3.64772 13.6669 3.8224 13.667 3.97951 13.6421C4.83529 13.5065 5.50647 12.8354 5.64202 11.9796C5.6669 11.8225 5.66679 11.6478 5.66666 11.4448V9.66668C5.66666 9.29849 5.36818 9.00001 4.99999 9.00001C3.89542 9.00001 2.99999 8.10458 2.99999 7.00001C2.99999 5.89544 3.89542 5.00001 4.99999 5.00001C5.36818 5.00001 5.66666 4.70153 5.66666 4.33334V2.55531C5.66679 2.3523 5.6669 2.17761 5.64202 2.02051C5.50647 1.16473 4.83529 0.493547 3.97951 0.358004Z" fill="#E5E5E5"/>
<path d="M9.19525 3.19527C9.4556 2.93492 9.87771 2.93492 10.1381 3.19527L13.4714 6.52861C13.7317 6.78896 13.7317 7.21107 13.4714 7.47141L10.1381 10.8047C9.87771 11.0651 9.4556 11.0651 9.19525 10.8047C8.9349 10.5444 8.9349 10.1223 9.19525 9.86194L11.3905 7.66668H4.99999C4.6318 7.66668 4.33332 7.3682 4.33332 7.00001C4.33332 6.63182 4.6318 6.33334 4.99999 6.33334H11.3905L9.19525 4.13808C8.9349 3.87773 8.9349 3.45562 9.19525 3.19527Z" fill="#E5E5E5"/>
</svg>
