<svg width="16" height="20" viewBox="0 0 16 20" fill="none" xmlns="http://www.w3.org/2000/svg">
<path fill-rule="evenodd" clip-rule="evenodd" d="M9.16515 0.881218C9.50449 1.02853 9.7061 1.38192 9.66022 1.749L8.94397 7.47897L14.1065 7.47897C14.3073 7.47893 14.5107 7.47889 14.6769 7.49394C14.8341 7.50817 15.135 7.54581 15.396 7.75674C15.6949 7.99821 15.866 8.36368 15.8602 8.74782C15.8552 9.08336 15.6914 9.33867 15.6017 9.46853C15.5069 9.60583 15.3767 9.76208 15.2481 9.91634L7.80684 18.8458C7.57001 19.13 7.17417 19.224 6.83483 19.0767C6.49548 18.9294 6.29387 18.576 6.33976 18.2089L7.056 12.479L1.89351 12.479C1.69268 12.479 1.48927 12.479 1.32308 12.464C1.16591 12.4498 0.864939 12.4121 0.603927 12.2012C0.305113 11.9597 0.133937 11.5943 0.13973 11.2101C0.14479 10.8746 0.308547 10.6193 0.398234 10.4894C0.493068 10.3521 0.62332 10.1959 0.751916 10.0416C0.758288 10.034 0.764656 10.0263 0.771016 10.0187L8.19314 1.11215C8.42997 0.827954 8.8258 0.733911 9.16515 0.881218Z" fill="#F2F2F2"/>
</svg>
