<svg width="20" height="18" viewBox="0 0 20 18" fill="none" xmlns="http://www.w3.org/2000/svg">
<path fill-rule="evenodd" clip-rule="evenodd" d="M14.2554 11.8023C14.462 11.391 14.9628 11.2251 15.3741 11.4317C16.7361 12.1159 17.8875 13.2052 18.7207 14.5475C18.8469 14.7508 19.0307 15.0224 19.0877 15.3904C19.1488 15.7844 19.0419 16.1611 18.8825 16.4476C18.7232 16.7341 18.4595 17.0237 18.0925 17.1796C17.7436 17.3278 17.3641 17.3123 17.0833 17.3123C16.6231 17.3123 16.25 16.9392 16.25 16.479C16.25 16.0187 16.6231 15.6456 17.0833 15.6456C17.2627 15.6456 17.357 15.6451 17.4243 15.6405L17.426 15.6374C17.442 15.6088 17.3209 15.4526 17.3047 15.4265C16.6195 14.3227 15.6904 13.4558 14.6259 12.921C14.2147 12.7144 14.0488 12.2136 14.2554 11.8023Z" fill="#F2F2F2"/>
<path fill-rule="evenodd" clip-rule="evenodd" d="M12.5871 1.49791C12.7919 1.08576 13.2921 0.917692 13.7042 1.12251C15.2113 1.8715 16.25 3.42817 16.25 5.22897C16.25 7.02978 15.2113 8.58645 13.7042 9.33544C13.2921 9.54026 12.7919 9.37218 12.5871 8.96004C12.3823 8.54789 12.5503 8.04773 12.9625 7.84291C13.9249 7.36464 14.5833 6.37294 14.5833 5.22897C14.5833 4.08501 13.9249 3.09331 12.9625 2.61504C12.5503 2.41022 12.3823 1.91006 12.5871 1.49791Z" fill="#F2F2F2"/>
<path fill-rule="evenodd" clip-rule="evenodd" d="M3.33335 5.22897C3.33335 2.69767 5.38538 0.645641 7.91668 0.645641C10.448 0.645641 12.5 2.69767 12.5 5.22897C12.5 7.76028 10.448 9.81231 7.91668 9.81231C5.38538 9.81231 3.33335 7.76028 3.33335 5.22897Z" fill="#F2F2F2"/>
<path fill-rule="evenodd" clip-rule="evenodd" d="M7.91668 10.6456C10.5802 10.6456 12.9613 12.1491 14.4143 14.3291C14.5423 14.5211 14.6788 14.7259 14.7742 14.9206C14.8891 15.1549 14.9716 15.424 14.9523 15.7455C14.9369 16.0019 14.8519 16.2397 14.7508 16.4286C14.6497 16.6174 14.4988 16.82 14.294 16.975C14.0196 17.1825 13.7238 17.2552 13.4624 17.2856C13.2322 17.3124 12.9596 17.3124 12.685 17.3123C9.50734 17.3117 6.32726 17.3117 3.14841 17.3123C2.87379 17.3124 2.60117 17.3124 2.37097 17.2856C2.10955 17.2552 1.81381 17.1825 1.53938 16.975C1.33452 16.82 1.18371 16.6174 1.08259 16.4286C0.981472 16.2397 0.896429 16.0019 0.88104 15.7455C0.861745 15.424 0.944245 15.1549 1.05912 14.9206C1.15456 14.7259 1.29107 14.5211 1.41908 14.3291C2.87206 12.1491 5.25315 10.6456 7.91668 10.6456Z" fill="#F2F2F2"/>
</svg>
